<?xml version="1.0" encoding="utf-8"?><svg xmlns="http://www.w3.org/2000/svg" xmlns:xlink="http://www.w3.org/1999/xlink"><symbol viewBox="0 0 16 12" id="button-arrow" xmlns="http://www.w3.org/2000/svg"><path d="M15.421 6.53a.75.75 0 000-1.06L10.648.697a.75.75 0 00-1.06 1.06L13.83 6l-4.243 4.243a.75.75 0 001.061 1.06l4.773-4.773zm-14.53.22h14v-1.5h-14v1.5z"/></symbol><symbol viewBox="0 0 10 11" id="cross" xmlns="http://www.w3.org/2000/svg"><path d="M9.3.901L.433 9.768m0-8.867L9.3 9.768"/></symbol><symbol viewBox="0 0 794 1343" id="features-bg" xmlns="http://www.w3.org/2000/svg"><path d="M793.235 351.9V83.669C793.235 36.913 759.336 0 716.397 0H470.065c-42.939 0-76.837 36.913-76.837 83.669v233.78c0 9.843-.001 17.226-2.261 27.069v2.461c-2.259 24.608-18.079 81.208-101.696 81.208H76.838C33.899 428.187 0 465.099 0 511.855v268.233c0 46.756 33.899 83.668 76.838 83.668H323.17c42.938 0 76.837-36.912 76.837-83.668V546.307c0-9.843 0-17.226 2.26-27.069v-2.461c2.26-24.608 18.08-81.208 101.697-81.208h212.433c42.939 0 76.838-36.913 76.838-83.669zm-392.529 909.23V987.673c0-44.344-33.958-81.298-74.708-81.298H74.708C33.958 906.375 0 943.329 0 987.673v273.457c0 44.34 33.958 81.3 74.708 81.3h251.29c40.75 0 74.708-36.96 74.708-81.3z"/></symbol><symbol viewBox="0 0 26 29" id="logo-mini" xmlns="http://www.w3.org/2000/svg"><path d="M26 3.132v8.614c0 1.502-1.111 2.688-2.518 2.688h-6.963c-2.741 0-3.26 1.817-3.334 2.607v.08c-.074.316-.074.553-.074.869v7.508c0 1.501-1.111 2.687-2.518 2.687H2.519C1.11 28.185 0 26.999 0 25.498v-8.615c0-1.501 1.111-2.687 2.519-2.687H9.48c2.741 0 3.26-1.817 3.334-2.608v-.079c.074-.316.074-.553.074-.869V3.132c0-1.501 1.111-2.687 2.518-2.687h8.075C24.889.445 26 1.631 26 3.132z"/></symbol><symbol viewBox="0 0 150 50" id="logo-white" xmlns="http://www.w3.org/2000/svg"><path d="M23 2.325v7.453c0 1.299-.983 2.325-2.228 2.325h-6.16c-2.424 0-2.883 1.572-2.948 2.256v.068c-.066.274-.066.479-.066.753v6.495c0 1.3-.983 2.325-2.228 2.325H2.228C.983 24 0 22.974 0 21.675v-7.453c0-1.299.983-2.325 2.228-2.325h6.16c2.424 0 2.883-1.572 2.948-2.256v-.068c.066-.274.066-.479.066-.752V2.325c0-1.3.983-2.325 2.228-2.325h7.142C22.017 0 23 1.026 23 2.325z"/><path d="M12 27.237v7.526A2.257 2.257 0 019.763 37H2.237A2.257 2.257 0 010 34.763v-7.526A2.257 2.257 0 012.237 25h7.526A2.257 2.257 0 0112 27.237z"/><path d="M12 40.237v7.526A2.257 2.257 0 019.763 50H2.237A2.257 2.257 0 010 47.763v-7.526A2.257 2.257 0 012.237 38h7.526A2.257 2.257 0 0112 40.237z"/><path d="M30.928 24.075v2.955c0 .605-.466 1.075-1.066 1.075h-2.796c-.6 0-1.066-.47-1.066-1.075v-2.955c0-.605.466-1.075 1.066-1.075h2.796c.533 0 1.066.47 1.066 1.075zM30.928 30.716H26V49.86h4.928V30.716zM35.384 23H53.63v5.105H40.578v5.91h12.053v4.837H40.579v11.015h-5.194V23zM76.28 35.223a10.057 10.057 0 00-1.999-3.224 10.41 10.41 0 00-3.13-2.15c-1.198-.537-2.663-.805-4.195-.805-1.532 0-2.997.268-4.262.805-1.265.538-2.397 1.277-3.33 2.217a9.303 9.303 0 00-2.13 3.358c-.533 1.277-.733 2.62-.733 4.098 0 1.477.266 2.888.733 4.164.466 1.276 1.198 2.351 2.064 3.291a9.677 9.677 0 003.33 2.217c1.265.537 2.73.806 4.328.806 2.264 0 4.129-.403 5.66-1.276 1.4-.74 2.531-1.814 3.463-3.09l.134-.202-3.663-2.283-.133.134c-.6.672-1.265 1.276-2.065 1.746-.932.538-2.064.806-3.33.806-1.464 0-2.73-.403-3.729-1.209-.998-.806-1.664-1.947-1.93-3.29l-.067-.337h15.65v-.268-.135c.066-.537.066-.94.066-1.209a11.87 11.87 0 00-.733-4.164zm-14.851 2.15l.133-.404c.4-1.209 1.066-2.216 1.931-2.888.933-.672 2.065-1.075 3.397-1.075 1.132 0 2.264.336 3.196 1.008.999.672 1.598 1.68 1.931 2.955l.067.403H61.429zM85.6 23h-4.995v26.867H85.6V23zM94.32 23h-4.995v26.867h4.995V23zM118.425 35.427a9.37 9.37 0 00-2.264-3.291 11.441 11.441 0 00-3.396-2.217c-1.266-.537-2.731-.806-4.262-.806-1.532 0-2.93.269-4.262.806a11.433 11.433 0 00-3.397 2.217 10.165 10.165 0 00-2.197 3.29c-.533 1.277-.8 2.62-.8 4.098 0 1.478.267 2.821.8 4.097a10.166 10.166 0 002.197 3.292c.999.94 2.131 1.679 3.397 2.216 1.265.538 2.73.806 4.262.806 1.531 0 2.93-.269 4.262-.806 1.265-.537 2.464-1.276 3.396-2.216a11.149 11.149 0 002.264-3.292c.533-1.276.799-2.62.799-4.097 0-1.41-.266-2.821-.799-4.097zm-4.528 6.515c-.267.739-.733 1.343-1.265 1.88-.533.538-1.133.941-1.865 1.277-1.465.605-3.197.605-4.595 0-.733-.336-1.332-.739-1.798-1.276a7.555 7.555 0 01-1.199-1.88 7.09 7.09 0 01-.399-2.419c0-.873.133-1.68.399-2.418.267-.739.733-1.343 1.199-1.88.533-.538 1.132-.941 1.865-1.277.732-.268 1.531-.47 2.264-.47.799 0 1.598.134 2.264.47.666.269 1.332.739 1.865 1.276a5.046 5.046 0 011.198 1.881c.267.739.466 1.545.466 2.418.067.873-.133 1.68-.399 2.418zM150 29.984l-5.128 19.949h-6.593l-2.997-12.695-1.798 7.389-1.265 5.306h-6.526l-5.061-19.95h4.994v.135l3.53 14.979 3.729-15.113h5.061l3.663 15.18 3.596-15.18H150z"/></symbol><symbol viewBox="0 0 16 11" id="slider-arrow" xmlns="http://www.w3.org/2000/svg"><path clip-rule="evenodd" d="M12.19 4.68L8.57 1.06 9.63 0l5.43 5.43-5.43 5.43L8.57 9.8l3.62-3.62H0v-1.5h12.19z"/></symbol></svg>