<?xml version="1.0" encoding="utf-8"?><svg xmlns="http://www.w3.org/2000/svg" xmlns:xlink="http://www.w3.org/1999/xlink"><symbol fill="none" viewBox="0 0 20 18" id="cross-icon" xmlns="http://www.w3.org/2000/svg"><path stroke="#161616" stroke-width="1.5" d="M18.53.53l-16 16M17.47 16.53l-16-16"/></symbol><symbol fill="none" viewBox="0 0 150 50" id="loader-logo" xmlns="http://www.w3.org/2000/svg"><path d="M12 27.237v7.526A2.257 2.257 0 019.763 37H2.237A2.257 2.257 0 010 34.763v-7.526A2.257 2.257 0 012.237 25h7.526A2.257 2.257 0 0112 27.237z" fill="#AFCDFB"/><path d="M12 40.237v7.526A2.257 2.257 0 019.763 50H2.237A2.257 2.257 0 010 47.763v-7.526A2.257 2.257 0 012.237 38h7.526A2.257 2.257 0 0112 40.237z" fill="#6795F7"/><path d="M30.928 24.075v2.955c0 .605-.466 1.075-1.066 1.075h-2.796c-.6 0-1.066-.47-1.066-1.075v-2.955c0-.605.466-1.075 1.066-1.075h2.796c.533 0 1.066.47 1.066 1.075zM30.928 30.716H26V49.86h4.928V30.716zM35.384 23H53.63v5.105H40.578v5.91h12.053v4.837H40.579v11.015h-5.194V23zM76.28 35.223a10.057 10.057 0 00-1.999-3.224 10.41 10.41 0 00-3.13-2.15c-1.198-.537-2.663-.805-4.195-.805-1.532 0-2.997.268-4.262.805-1.265.538-2.397 1.277-3.33 2.217a9.303 9.303 0 00-2.13 3.358c-.533 1.277-.733 2.62-.733 4.098 0 1.477.266 2.888.733 4.164.466 1.276 1.198 2.351 2.064 3.291a9.677 9.677 0 003.33 2.217c1.265.537 2.73.806 4.328.806 2.264 0 4.129-.403 5.66-1.276 1.4-.74 2.531-1.814 3.463-3.09l.134-.202-3.663-2.283-.133.134c-.6.672-1.265 1.276-2.065 1.746-.932.538-2.064.806-3.33.806-1.464 0-2.73-.403-3.729-1.209-.998-.806-1.664-1.947-1.93-3.29l-.067-.337h15.65v-.268-.135c.066-.537.066-.94.066-1.209a11.87 11.87 0 00-.733-4.164zm-14.851 2.15l.133-.404c.4-1.209 1.066-2.216 1.931-2.888.933-.672 2.065-1.075 3.397-1.075 1.132 0 2.264.336 3.196 1.008.999.672 1.598 1.68 1.931 2.955l.067.403H61.429zM85.6 23h-4.994v26.867H85.6V23zM94.32 23h-4.995v26.867h4.995V23zM118.425 35.427a9.37 9.37 0 00-2.264-3.291 11.441 11.441 0 00-3.396-2.217c-1.266-.537-2.731-.806-4.262-.806-1.532 0-2.93.269-4.262.806a11.433 11.433 0 00-3.397 2.217 10.164 10.164 0 00-2.197 3.29c-.533 1.277-.8 2.62-.8 4.098 0 1.478.267 2.821.8 4.097a10.165 10.165 0 002.197 3.292c.999.94 2.131 1.679 3.397 2.216 1.265.538 2.73.806 4.262.806 1.531 0 2.93-.269 4.262-.806 1.265-.537 2.464-1.276 3.396-2.216a11.149 11.149 0 002.264-3.292c.533-1.276.799-2.62.799-4.097 0-1.41-.266-2.821-.799-4.097zm-4.528 6.515c-.267.739-.733 1.343-1.266 1.88-.532.538-1.132.941-1.864 1.277-1.465.605-3.197.605-4.595 0-.733-.336-1.332-.739-1.798-1.276a7.555 7.555 0 01-1.199-1.88 7.09 7.09 0 01-.399-2.419c0-.873.133-1.68.399-2.418.267-.739.733-1.343 1.199-1.88.533-.538 1.132-.941 1.864-1.277.733-.268 1.532-.47 2.265-.47.799 0 1.598.134 2.264.47.666.269 1.332.739 1.864 1.276a5.036 5.036 0 011.199 1.881c.266.739.466 1.545.466 2.418.067.873-.133 1.68-.399 2.418zM150 29.984l-5.128 19.949h-6.593l-2.997-12.695-1.798 7.389-1.265 5.306h-6.526l-5.061-19.95h4.994v.135l3.53 14.979 3.729-15.113h5.061l3.663 15.18 3.596-15.18H150z" fill="#fff"/></symbol><symbol fill="none" viewBox="0 0 151 50" id="logo-black" xmlns="http://www.w3.org/2000/svg"><path d="M23.276 2.297v7.365c0 1.284-.994 2.297-2.254 2.297h-6.234c-2.454 0-2.918 1.555-2.984 2.23v.068c-.066.27-.066.473-.066.743v6.419c0 1.284-.995 2.297-2.255 2.297H2.255C.995 23.716 0 22.703 0 21.42v-7.365c0-1.284.995-2.297 2.255-2.297h6.233c2.454 0 2.918-1.554 2.984-2.23v-.068c.067-.27.067-.473.067-.743V2.297c0-1.283.995-2.297 2.255-2.297h7.228c1.26 0 2.255 1.014 2.255 2.297z" fill="#0041F9"/><path d="M11.738 27.162v7.5c0 1.216-.995 2.23-2.189 2.23H2.19C.994 36.892 0 35.878 0 34.662v-7.5c0-1.216.995-2.23 2.188-2.23H9.55c1.194 0 2.189 1.014 2.189 2.23z" fill="#6795F7"/><path d="M11.738 40.27v7.5c0 1.216-.995 2.23-2.189 2.23H2.19C.994 50 0 48.986 0 47.77v-7.5c0-1.216.995-2.23 2.188-2.23H9.55c1.194 0 2.189 1.014 2.189 2.23z" fill="#AFCDFB"/><path d="M31.435 23.446v2.973c0 .608-.465 1.08-1.061 1.08h-2.786c-.597 0-1.06-.472-1.06-1.08v-2.973c0-.609.463-1.082 1.06-1.082h2.786c.53 0 1.06.473 1.06 1.082zM31.435 30.134h-4.908V49.39h4.908V30.134zM35.875 22.364h18.17V27.5H41.048v5.946H53.05v4.864H41.048v11.081h-5.173V22.366zM76.59 34.661a10.132 10.132 0 00-1.99-3.243 10.367 10.367 0 00-3.116-2.162c-1.194-.54-2.653-.81-4.178-.81s-2.984.27-4.244.81c-1.26.54-2.387 1.284-3.316 2.23a9.369 9.369 0 00-2.122 3.378c-.53 1.284-.73 2.635-.73 4.122 0 1.486.266 2.905.73 4.189.464 1.284 1.194 2.365 2.056 3.31a9.632 9.632 0 003.316 2.23c1.26.541 2.718.811 4.31.811 2.255 0 4.112-.405 5.637-1.283 1.392-.744 2.52-1.825 3.448-3.108l.133-.203-3.648-2.297-.132.135c-.597.675-1.26 1.283-2.056 1.756-.928.54-2.056.811-3.316.811-1.459 0-2.719-.405-3.713-1.216-.995-.81-1.658-1.96-1.923-3.31l-.067-.339h15.584v-.27-.135c.067-.54.067-.946.067-1.216 0-1.554-.266-2.906-.73-4.19zm-14.788 2.163l.133-.406c.397-1.216 1.06-2.23 1.923-2.905.928-.676 2.055-1.081 3.382-1.081 1.127 0 2.254.338 3.183 1.013.995.676 1.591 1.69 1.923 2.973l.066.406h-10.61zM85.88 22.364h-4.974v27.027h4.974V22.366zM94.567 22.364h-4.973v27.027h4.973V22.366zM118.573 34.863a9.428 9.428 0 00-2.254-3.31 11.385 11.385 0 00-3.382-2.23c-1.26-.541-2.719-.811-4.245-.811-1.525 0-2.917.27-4.244.81a11.385 11.385 0 00-3.382 2.23 10.232 10.232 0 00-2.188 3.311c-.53 1.284-.796 2.635-.796 4.122 0 1.486.265 2.837.796 4.121a10.232 10.232 0 002.188 3.311c.995.946 2.122 1.69 3.382 2.23 1.26.54 2.719.81 4.244.81 1.526 0 2.918-.27 4.245-.81 1.26-.54 2.453-1.284 3.382-2.23a11.205 11.205 0 002.254-3.31c.531-1.285.796-2.636.796-4.122a10.84 10.84 0 00-.796-4.122zm-4.509 6.554c-.265.743-.73 1.352-1.26 1.892-.531.54-1.127.946-1.857 1.284-1.459.608-3.183.608-4.576 0-.729-.338-1.326-.743-1.79-1.284a7.62 7.62 0 01-1.194-1.892 7.194 7.194 0 01-.398-2.432c0-.879.133-1.69.398-2.433.265-.743.73-1.351 1.194-1.892.53-.54 1.127-.946 1.857-1.283.729-.27 1.525-.473 2.254-.473.796 0 1.592.135 2.255.473.663.27 1.326.743 1.857 1.283.53.54.928 1.149 1.194 1.892.265.743.464 1.554.464 2.433.066.878-.133 1.689-.398 2.432zM150.003 29.392l-5.107 20.067h-6.565l-2.984-12.77-1.79 7.432-1.26 5.338h-6.499l-5.04-20.067h4.973v.135l3.515 15.067 3.714-15.202H138l3.647 15.27 3.581-15.27h4.775z" fill="#161616"/></symbol><symbol fill="none" viewBox="0 0 76 19" id="mark-weber" xmlns="http://www.w3.org/2000/svg"><g clip-path="url(#dclip0_1046_52158)" fill-rule="evenodd" clip-rule="evenodd" fill="#666"><path d="M40.86 4.601c.183.192 1.828 4.747 2 5.31a7.8 7.8 0 00.721 1.721c.57.135.624-.461.796-.934.935-2.553 2.354-6.277 3.064-8.785.495-1.215.538-1.541-.355-1.541-.892 0-.795.607-1.15 1.394-.312 1.497-1.516 4.658-1.957 6.109 0 .191 0 .191-.226.191-.742-2.16-1.602-4.803-2.44-6.94-.227-.417-.625-.507-.893.427-.452 1.485-1.076 3.25-1.56 4.69 0 0-.58 1.823-.623 1.913a5.77 5.77 0 01-.667-1.676c-.666-1.721-1.247-3.577-1.817-5.298-.14-.327-.14-.518-.452-.71a1.783 1.783 0 00-.978-.09c-.882.147-.312.89-.13 1.44 1.076 3.027 2.27 6.66 3.463 9.54a.436.436 0 00.132.181.41.41 0 00.416.059.422.422 0 00.173-.139c.172-.348 2.354-6.862 2.484-6.862zM.172.56a.927.927 0 00.043.563C.398 1.91-.14 10.887 0 11.247c.435.205.923.252 1.387.135.215-.236.13-.461.13-.832 0-1.587.128-3.117.128-4.748.054-.607.097-1.023.097-1.395 0-.37 0-.326.086-.416.086-.09 1.495 2.475 1.634 2.756.27.551.796 1.395 1.15 2.048.539 1.023.807.326.936.09.312-.417 2.72-4.838 2.893-4.928.161.18.161 4.601.161 4.928 0 2.418-.269 2.654 1.194 2.553.451 0 .494-.371.451-.787V8.187a111.566 111.566 0 01-.204-6.277c0-.236.086-1.125.086-1.26a.862.862 0 00-.505-.293.838.838 0 00-.57.102c-.312.191-.398.607-.624.889-.903 1.676-2.118 3.577-2.968 5.163-.311.562-.311.371-.58 0-.58-.889-1.334-2.419-1.86-3.307L1.946 1.348a3.863 3.863 0 00-.57-.89C1.076.235.484.415.172.56zM56.916 5.774c.38-.325.832-.546 1.314-.644.482-.099.98-.07 1.45.081 1.419.653 1.602 2.846.978 3.915a2.334 2.334 0 01-1.095.916c-.447.18-.936.21-1.4.085a3.155 3.155 0 01-1.247-.562V5.774zm0-1.586a33.635 33.635 0 010-3.679c0-.506-.172-.596-.624-.416-1.075.472-1.075.281-.924 1.305.086.517 0 6.513 0 7.357 0 1.665-.226 2.047 2.086 2.745a4.775 4.775 0 001.997.01 4.875 4.875 0 001.841-.809c2.27-1.946 1.646-7.436-2.494-7.02-.361.021-.72.066-1.076.136-.14.045-.666.37-.73.37h-.076zM25.553 11.352a4.534 4.534 0 00.14-1.811 13.87 13.87 0 010-1.912c.129 0 .269.236.538.517.268.281 2.483 2.7 2.838 2.97.124.12.273.209.436.258.162.048.334.057.5.023.312 0 .806 0 .978-.225 0-.326-.623-.844-.892-1.125s-.613-.641-.925-1.023a19.435 19.435 0 01-1.914-2.037c0-.1 2.44-2.25 2.893-2.654.172-.192.354-.237.311-.518a2.76 2.76 0 00-1.698 0c-.216.101-1.689 1.496-2.087 1.868-.129.135-.892.978-.978.933-.13-.427 0-6.243-.086-6.57-.086-.326-1.602.192-1.56.754.085.396.128.8.13 1.204v8.043c0 .281-.086 1.125.097 1.26.418.112.855.127 1.28.045zM13.97 7.536c.494-.135 2.15.281 2.226.742.043.498.043.999 0 1.496-.312.417-2.452 1.249-3.162-.236a1.636 1.636 0 010-1.35c.104-.171.24-.318.402-.43.16-.113.343-.189.534-.222zm2.269-.563a3.8 3.8 0 00-1.377-.596 4.879 4.879 0 00-1.828.135 2.44 2.44 0 00-1.263.9 2.63 2.63 0 00-.505 1.508c-.01.546.149 1.082.451 1.527.303.446.735.778 1.231.947.85.304 1.774.304 2.624 0 .183-.09.538-.326.667-.371.129-.045.183.326.355.416.172.09.978 0 1.204-.225.226-.225.269-.191.129-.517a2.424 2.424 0 01-.215-1.395V5.95A2.04 2.04 0 0017.4 4.6c-.85-1.766-5.968-1.069-5.56.427.41 1.496 1.076-.517 3.334-.236 1.215.135 1.086 1.35 1.086 2.182h-.021zM68.881 6.748h-3.688c.05-.462.25-.892.57-1.215.348-.32.785-.513 1.247-.551.24-.021.483.009.712.088.229.08.44.206.622.373.182.157.326.357.42.584.093.227.133.474.117.72zM65.096 7.95c.269-.135 4.301 0 5.032 0 .732 0 .398-2.508-.935-3.532a3.469 3.469 0 00-3.828-.315 3.68 3.68 0 00-1.442 1.447 3.907 3.907 0 00-.483 2.03 3.97 3.97 0 00.444 1.98 3.754 3.754 0 001.352 1.461c1.194.844 4.398.8 4.796-.506.494-1.676-.667-.742-1.076-.562a3.725 3.725 0 01-1.075.281c-2.376.281-2.957-1.912-2.785-2.284zM48.954 6.754c.038-.48.247-.929.585-1.256.339-.327.782-.51 1.243-.51.925-.102 2 .742 1.817 1.766h-3.645zm-.183 1.125h4.99c.58 0 .483-.372.44-.833a3.727 3.727 0 00-.54-1.757 3.516 3.516 0 00-1.298-1.248 3.327 3.327 0 00-3.409.114A3.722 3.722 0 0047.6 5.638a3.936 3.936 0 00-.419 2.004 3.654 3.654 0 00.425 1.973c.323.6.807 1.087 1.392 1.402 1.516.979 4.495.563 4.764-.551 0-.326.215-1.125-.27-.934a5.78 5.78 0 01-1.88.71c-.353.048-.711.024-1.055-.073a2.642 2.642 0 01-.946-.49c-.387-.327-1.01-1.305-.839-1.8zM72.922 11.397c.269-.282.226-.417.226-.833V9.44c0-1.485-.27-3.948 1.376-4.32.355-.09.44.226.892.136.267-.25.467-.568.581-.923 0-.709-1.075-.844-2.054-.382-.311.146-.57.652-.795.697 0-.416.086-.596-.183-.967a2.356 2.356 0 00-.979.326c-.44.225-.526.225-.44.787.085.563 0 4.421 0 5.344.042 1.406.042 1.36 1.376 1.26zM20.494 11.354v-.09c.125-1.143.157-2.294.097-3.443 0-.888.215-2.328 1.15-2.61.753-.28.796.462 1.29 0 1.151-1.26-.397-1.766-1.333-1.35-.935.417-.806.743-1.075.833a2.352 2.352 0 010-.551c0-.236-.097-.236-.183-.371a1.798 1.798 0 00-.978.28c-.441.18-.58.226-.441.788.094.863.123 1.732.086 2.599v2.565c.097 1.395-.086 1.496 1.387 1.35zM40.552 12.845c-1.775.23-3.52.663-5.204 1.294-.527.236-1.076.371-1.602.607-1.076.417-2.087.788-3.151 1.215-.355.135-2.892.923-3.333 1.024-2.15.551-5.377 1.204-7.43.225-.979-.506-1.076 1.069 1.15 1.631a8.696 8.696 0 003.914-.18c1.075-.236 2.366-.652 3.387-.979a161.09 161.09 0 013.333-1.023c.27-.101.484-.191.796-.281l1.645-.518c.312-.09.538-.225.807-.326l1.699-.416c.312-.09.537-.18.806-.282a30.886 30.886 0 016.85-.742c.57 0 1.419.146 2 .236 1.075.135.838-.461.129-.844a10.847 10.847 0 00-5.796-.64z"/></g><defs><clipPath id="dclip0_1046_52158"><path fill="#fff" d="M0 0h76v19H0z"/></clipPath></defs></symbol><symbol fill="none" viewBox="0 0 20 20" id="phone-icon" xmlns="http://www.w3.org/2000/svg"><path fill-rule="evenodd" clip-rule="evenodd" d="M9.047 10.953A10.528 10.528 0 016.848 7.78a.624.624 0 01.139-.689l.682-.682c.56-.559.56-1.35.071-1.838l-.978-.978a1.666 1.666 0 00-2.357 0l-.543.543c-.618.617-.875 1.508-.709 2.392.412 2.177 1.677 4.561 3.718 6.602 2.04 2.041 4.425 3.306 6.602 3.718.884.166 1.774-.091 2.392-.709l.542-.542c.651-.651.651-1.706 0-2.357l-.977-.977a1.25 1.25 0 00-1.768 0l-.752.753a.624.624 0 01-.69.138 10.55 10.55 0 01-3.173-2.2z" fill="currentColor"/></symbol><symbol fill="none" viewBox="0 0 350 344" id="product-blue-1" xmlns="http://www.w3.org/2000/svg"><path d="M312.25.501H31.698a30.632 30.632 0 00-30.75 31.36L6.456 312.36c.34 17.32 14.659 31.36 31.982 31.36H318.99a30.631 30.631 0 0030.75-31.36l-5.508-280.498c-.34-17.32-14.659-31.36-31.982-31.36z" fill="#3770EB"/></symbol><symbol fill="none" viewBox="0 0 350 344" id="product-blue-2" xmlns="http://www.w3.org/2000/svg"><path d="M312.25.501H31.698a30.632 30.632 0 00-30.75 31.36L6.456 312.36c.34 17.32 14.659 31.36 31.982 31.36H318.99a30.631 30.631 0 0030.75-31.36l-5.508-280.498c-.34-17.32-14.659-31.36-31.982-31.36z" fill="#BFD0F5"/></symbol><symbol fill="none" viewBox="0 0 336 331" id="product-green-1" xmlns="http://www.w3.org/2000/svg"><path d="M299.188.566H29.838A29.409 29.409 0 00.314 30.674l5.288 269.299c.326 16.628 14.074 30.108 30.705 30.108H305.66a29.408 29.408 0 0029.522-30.108l-5.288-269.298C329.566 14.046 315.819.566 299.188.566z" fill="#90ED7B"/></symbol><symbol fill="none" viewBox="0 0 350 344" id="product-green-2" xmlns="http://www.w3.org/2000/svg"><path d="M311.918 0H31.366A30.632 30.632 0 00.616 31.36l5.508 280.498c.34 17.32 14.66 31.36 31.982 31.36h280.552a30.63 30.63 0 0030.75-31.36L343.9 31.36C343.56 14.04 329.241 0 311.918 0z" fill="#D9F5D3"/></symbol><symbol fill="none" viewBox="0 0 350 344" id="product-light-blue-1" xmlns="http://www.w3.org/2000/svg"><path d="M312.238.489H31.687a30.632 30.632 0 00-30.75 31.36l5.507 280.498c.34 17.32 14.66 31.36 31.982 31.36h280.552a30.632 30.632 0 0030.751-31.36l-5.508-280.498C343.88 14.53 329.562.49 312.238.49z" fill="#7CE4ED"/></symbol><symbol fill="none" viewBox="0 0 350 344" id="product-light-blue-2" xmlns="http://www.w3.org/2000/svg"><path d="M312.25.501H31.698a30.632 30.632 0 00-30.75 31.36L6.456 312.36c.34 17.32 14.659 31.36 31.982 31.36H318.99a30.631 30.631 0 0030.75-31.36l-5.508-280.498c-.34-17.32-14.659-31.36-31.982-31.36z" fill="#D4F3F5"/></symbol><symbol fill="none" viewBox="0 0 350 344" id="product-sky-1" xmlns="http://www.w3.org/2000/svg"><path d="M312.016.735H31.464a30.632 30.632 0 00-30.75 31.36l5.508 280.498c.34 17.32 14.659 31.36 31.982 31.36h280.552a30.631 30.631 0 0030.75-31.36l-5.508-280.498c-.34-17.32-14.659-31.36-31.982-31.36z" fill="#5FB2ED"/></symbol><symbol fill="none" viewBox="0 0 350 344" id="product-sky-2" xmlns="http://www.w3.org/2000/svg"><path d="M312.016.735H31.464a30.632 30.632 0 00-30.75 31.36l5.508 280.498c.34 17.32 14.659 31.36 31.982 31.36h280.552a30.631 30.631 0 0030.75-31.36l-5.508-280.498c-.34-17.32-14.659-31.36-31.982-31.36z" fill="#CBE4F5"/></symbol><symbol fill="none" viewBox="0 0 20 19" id="search-icon" xmlns="http://www.w3.org/2000/svg"><path d="M12.935 5.248a4.723 4.723 0 010 6.82c-1.94 1.884-5.086 1.884-7.027 0a4.723 4.723 0 010-6.82c1.94-1.883 5.087-1.883 7.027 0M15.542 14.598l-2.604-2.528" stroke="currentColor" stroke-width="2" stroke-linecap="round" stroke-linejoin="round"/></symbol><symbol fill="none" viewBox="0 0 350 344" id="team-job-bg" xmlns="http://www.w3.org/2000/svg"><path opacity=".3" d="M312.25.5H31.698A30.632 30.632 0 00.948 31.862L6.456 312.36c.34 17.32 14.659 31.36 31.982 31.36H318.99a30.631 30.631 0 0030.75-31.36l-5.508-280.498c-.34-17.32-14.659-31.36-31.982-31.36z" fill="#fff"/></symbol><symbol fill="none" viewBox="0 0 16 16" id="warning" xmlns="http://www.w3.org/2000/svg"><path d="M8.895 5.83V13H7.111V5.83h1.784zM7 3.96c0-.277.09-.507.272-.688C7.452 3.09 7.695 3 8 3c.3 0 .541.09.722.272.185.18.278.41.278.689a.923.923 0 01-.278.69c-.18.18-.422.27-.722.27-.305 0-.547-.09-.728-.27A.934.934 0 017 3.96z" fill="#C5C5C5"/><rect x=".5" y=".5" width="15" height="15" rx="7.5" stroke="#C5C5C5"/></symbol></svg>