<svg width="471" height="904" viewBox="0 0 471 904" fill="none" xmlns="http://www.w3.org/2000/svg">
<path d="M405 518.362V650.963C405 674.077 387.692 692.325 365.769 692.325H257.308C214.615 692.325 206.538 720.305 205.385 732.47V733.687C204.231 738.553 204.231 742.202 204.231 747.068V862.638C204.231 885.752 186.923 904 165 904H39.2308C17.3077 904 0 885.752 0 862.638V730.037C0 706.923 17.3077 688.675 39.2308 688.675H147.692C190.385 688.675 198.461 660.695 199.615 648.53V647.313C200.769 642.447 200.769 638.798 200.769 633.932V518.362C200.769 495.248 218.077 477 240 477H365.769C387.692 477 405 495.248 405 518.362Z" fill="#5FB2ED"/>
<path d="M471 41.3618V173.963C471 197.077 453.692 215.325 431.769 215.325H323.308C280.615 215.325 272.538 243.305 271.385 255.47V256.687C270.231 261.553 270.231 265.202 270.231 270.068V385.638C270.231 408.752 252.923 427 231 427H105.231C83.3077 427 66 408.752 66 385.638V253.037C66 229.923 83.3077 211.675 105.231 211.675H213.692C256.385 211.675 264.461 183.695 265.615 171.53V170.313C266.769 165.447 266.769 161.798 266.769 156.932V41.3618C266.769 18.2478 284.077 0 306 0H431.769C453.692 0 471 18.2478 471 41.3618Z" fill="#7CE4ED"/>
</svg>
