<svg width="133" height="240" viewBox="0 0 133 240" fill="none" xmlns="http://www.w3.org/2000/svg">
<path fill-rule="evenodd" clip-rule="evenodd" d="M14.7269 0.594046C8.22212 2.34494 2.38026 8.25653 0.674479 14.8132C-0.179203 18.0947 -0.245175 221.624 0.606533 224.812C2.30797 231.178 7.40953 236.595 13.8953 238.92L16.4631 239.841L47.2762 239.953C64.2235 240.016 80.4695 240.016 83.379 239.953L88.6682 239.841L52.0108 203.851C31.8495 184.056 14.4756 166.703 13.4031 165.289C3.0708 151.668 3.00127 131.858 13.238 118.216C15.0686 115.776 104.832 27.069 127.975 4.8287L133 0L74.929 0.00988758C25.449 0.0185887 16.5429 0.104808 14.7269 0.594046Z" fill="#0041F9"/>
</svg>
