<svg width="30" height="30" viewBox="0 0 30 30" fill="none" xmlns="http://www.w3.org/2000/svg">
<rect width="30" height="30" rx="15" fill="#0077FF"/>
<path d="M15.7427 20.248C10.1053 20.248 6.88984 16.3066 6.75586 9.74805H9.57972C9.67247 14.5619 11.7543 16.6009 13.4033 17.0213V9.74805H16.0622V13.8997C17.6906 13.721 19.4014 11.8291 19.9785 9.74805H22.6375C22.42 10.8274 21.9865 11.8493 21.3641 12.7499C20.7416 13.6506 19.9437 14.4105 19.0201 14.9823C20.051 15.5047 20.9616 16.2442 21.6917 17.1519C22.4219 18.0595 22.955 19.1148 23.2559 20.248H20.3289C20.0588 19.2638 19.5099 18.3827 18.7509 17.7152C17.9919 17.0477 17.0566 16.6235 16.0622 16.4958V20.248H15.7427Z" fill="white"/>
</svg>
