<svg width="151" height="50" viewBox="0 0 151 50" fill="none" xmlns="http://www.w3.org/2000/svg">
<path d="M23.2765 2.29729V9.66215C23.2765 10.9459 22.2818 11.9595 21.0218 11.9595H14.7882C12.3345 11.9595 11.8703 13.5135 11.804 14.1892V14.2567C11.7377 14.527 11.7377 14.7297 11.7377 15V21.4189C11.7377 22.7027 10.743 23.7162 9.48301 23.7162H2.2547C0.994722 23.7162 0 22.7027 0 21.4189V14.054C0 12.7703 0.994722 11.7568 2.2547 11.7568H8.48829C10.9419 11.7568 11.4061 10.2027 11.4724 9.52702V9.45946C11.5388 9.18919 11.5388 8.98648 11.5388 8.71621V2.29729C11.5388 1.01351 12.5335 0 13.7935 0H21.0218C22.2818 0 23.2765 1.01351 23.2765 2.29729Z" fill="#0041F9"/>
<path d="M11.7377 27.1619V34.6619C11.7377 35.8781 10.743 36.8916 9.54932 36.8916H2.18838C0.994718 36.8916 0 35.8781 0 34.6619V27.1619C0 25.9456 0.994718 24.9321 2.18838 24.9321H9.54932C10.743 24.9321 11.7377 25.9456 11.7377 27.1619Z" fill="#6795F7"/>
<path d="M11.7377 40.2703V47.7703C11.7377 48.9865 10.743 50 9.54932 50H2.18838C0.994718 50 0 48.9865 0 47.7703V40.2703C0 39.054 0.994718 38.0405 2.18838 38.0405H9.54932C10.743 38.0405 11.7377 39.054 11.7377 40.2703Z" fill="#AFCDFB"/>
<path d="M31.4346 23.4456V26.4186C31.4346 27.0267 30.9704 27.4996 30.3736 27.4996H27.5884C26.9915 27.4996 26.5273 27.0267 26.5273 26.4186V23.4456C26.5273 22.8375 26.9915 22.3645 27.5884 22.3645H30.3736C30.9041 22.3645 31.4346 22.8375 31.4346 23.4456Z" fill="#161616"/>
<path d="M31.4346 30.1338H26.5273V49.3905H31.4346V30.1338Z" fill="#161616"/>
<path d="M35.875 22.3645H54.0452V27.4996H41.0476V33.4456H53.0505V38.3105H41.0476V49.3915H35.875V22.3645Z" fill="#161616"/>
<path d="M76.59 34.6615C76.1258 33.4453 75.4627 32.3642 74.6006 31.4183C73.7385 30.5399 72.6774 29.7967 71.4838 29.2561C70.2901 28.7156 68.8312 28.4453 67.3059 28.4453C65.7807 28.4453 64.3218 28.7156 63.0618 29.2561C61.8018 29.7967 60.6745 30.5399 59.7461 31.4859C58.8177 32.4318 58.0882 33.5804 57.624 34.8642C57.0935 36.148 56.8945 37.4994 56.8945 38.9859C56.8945 40.4723 57.1598 41.8913 57.624 43.175C58.0882 44.4588 58.8177 45.5399 59.6797 46.4858C60.6082 47.4318 61.6692 48.175 62.9955 48.7156C64.2555 49.2561 65.7144 49.5264 67.3059 49.5264C69.5606 49.5264 71.4175 49.121 72.9427 48.2426C74.3353 47.4994 75.4627 46.4183 76.3911 45.1345L76.5237 44.9318L72.8764 42.6345L72.7438 42.7696C72.1469 43.4453 71.4838 44.0534 70.688 44.5264C69.7596 45.0669 68.6322 45.3372 67.3723 45.3372C65.9133 45.3372 64.6534 44.9318 63.6586 44.121C62.6639 43.3102 62.0008 42.1615 61.7355 40.8102L61.6692 40.4723H77.2532V40.2021C77.2532 40.1345 77.2532 40.0669 77.2532 40.0669C77.3195 39.5264 77.3195 39.121 77.3195 38.8507C77.3195 37.2967 77.0542 35.9453 76.59 34.6615ZM61.8018 36.8237L61.9345 36.4183C62.3323 35.2021 62.9955 34.1886 63.8576 33.5129C64.786 32.8372 65.9133 32.4318 67.2396 32.4318C68.367 32.4318 69.4943 32.7696 70.4227 33.4453C71.4175 34.121 72.0143 35.1345 72.3459 36.4183L72.4122 36.8237H61.8018Z" fill="#161616"/>
<path d="M85.8799 22.3645H80.9062V49.3915H85.8799V22.3645Z" fill="#161616"/>
<path d="M94.5674 22.3645H89.5938V49.3915H94.5674V22.3645Z" fill="#161616"/>
<path d="M118.573 34.8631C118.043 33.5793 117.313 32.4982 116.319 31.5523C115.324 30.6063 114.197 29.8631 112.937 29.3225C111.677 28.782 110.218 28.5117 108.692 28.5117C107.167 28.5117 105.775 28.782 104.448 29.3225C103.188 29.8631 102.061 30.6063 101.066 31.5523C100.138 32.4982 99.4083 33.5793 98.8778 34.8631C98.3473 36.1468 98.082 37.4982 98.082 38.9847C98.082 40.4712 98.3473 41.8225 98.8778 43.1063C99.4083 44.3901 100.138 45.4712 101.066 46.4171C102.061 47.3631 103.188 48.1063 104.448 48.6469C105.708 49.1874 107.167 49.4577 108.692 49.4577C110.218 49.4577 111.61 49.1874 112.937 48.6469C114.197 48.1063 115.39 47.3631 116.319 46.4171C117.247 45.4712 118.043 44.3225 118.573 43.1063C119.104 41.8225 119.369 40.4712 119.369 38.9847C119.369 37.5658 119.104 36.1468 118.573 34.8631ZM114.064 41.4171C113.799 42.1604 113.334 42.7685 112.804 43.309C112.273 43.8496 111.677 44.255 110.947 44.5928C109.488 45.2009 107.764 45.2009 106.371 44.5928C105.642 44.255 105.045 43.8496 104.581 43.309C104.117 42.7685 103.719 42.1604 103.387 41.4171C103.122 40.6739 102.989 39.8631 102.989 38.9847C102.989 38.1063 103.122 37.2955 103.387 36.5523C103.652 35.809 104.117 35.2009 104.581 34.6604C105.111 34.1198 105.708 33.7144 106.438 33.3766C107.167 33.1063 107.963 32.9036 108.692 32.9036C109.488 32.9036 110.284 33.0387 110.947 33.3766C111.61 33.6469 112.273 34.1198 112.804 34.6604C113.334 35.2009 113.732 35.809 113.998 36.5523C114.263 37.2955 114.462 38.1063 114.462 38.9847C114.528 39.8631 114.329 40.6739 114.064 41.4171Z" fill="#161616"/>
<path d="M150.003 29.3916L144.896 49.4592H138.331L135.347 36.6889L133.557 44.1213L132.297 49.4592H125.798L120.758 29.3916H125.731V29.5267L129.246 44.5943L132.96 29.3916H138L141.647 44.6619L145.228 29.3916H150.003Z" fill="#161616"/>
</svg>
