<svg width="794" height="1343" viewBox="0 0 794 1343" fill="none" xmlns="http://www.w3.org/2000/svg">
  <path d="M793.235 351.9V83.6686C793.235 36.9125 759.336 0 716.397 0L470.065 0C427.126 0 393.228 36.9125 393.228 83.6686L393.228 317.449C393.228 327.292 393.227 334.675 390.967 344.518V346.979C388.708 371.587 372.888 428.187 289.271 428.187L76.8376 428.187C33.899 428.187 0 465.099 0 511.855L0 780.088C0 826.844 33.899 863.756 76.8376 863.756H323.17C366.108 863.756 400.007 826.844 400.007 780.088L400.007 546.307C400.007 536.464 400.007 529.081 402.267 519.238V516.777C404.527 492.169 420.347 435.569 503.964 435.569L716.397 435.569C759.336 435.569 793.235 398.656 793.235 351.9ZM400.706 1261.13L400.706 987.673C400.706 943.329 366.748 906.375 325.998 906.375H74.7079C33.9581 906.375 0 943.329 0 987.673L0 1261.13C0 1305.47 33.9581 1342.43 74.7079 1342.43L325.998 1342.43C366.748 1342.43 400.706 1305.47 400.706 1261.13Z"/>
</svg>
