<svg width="26" height="29" viewBox="0 0 26 29" fill="none" xmlns="http://www.w3.org/2000/svg">
<path d="M26 3.13231V11.7465C26 13.2481 24.8889 14.4335 23.4815 14.4335H16.5185C13.7778 14.4335 13.2593 16.2512 13.1852 17.0415V17.1205C13.1111 17.4366 13.1111 17.6737 13.1111 17.9898V25.4976C13.1111 26.9992 12 28.1846 10.5926 28.1846H2.51852C1.11111 28.1846 0 26.9992 0 25.4976V16.8834C0 15.3818 1.11111 14.1964 2.51852 14.1964H9.48148C12.2222 14.1964 12.7407 12.3787 12.8148 11.5884V11.5094C12.8889 11.1933 12.8889 10.9562 12.8889 10.6401V3.13231C12.8889 1.63075 14 0.445312 15.4074 0.445312H23.4815C24.8889 0.445312 26 1.63075 26 3.13231Z" fill="#0041F9"/>
</svg>
