<svg width="150" height="50" viewBox="0 0 150 50" fill="none" xmlns="http://www.w3.org/2000/svg">
<path d="M23 2.32478V9.77777C23 11.0769 22.0171 12.1026 20.7721 12.1026H14.6125C12.188 12.1026 11.7293 13.6752 11.6638 14.359V14.4273C11.5983 14.7009 11.5983 14.906 11.5983 15.1795V21.6752C11.5983 22.9744 10.6154 24 9.37037 24H2.22792C0.982907 24 0 22.9744 0 21.6752V14.2222C0 12.9231 0.982907 11.8974 2.22792 11.8974H8.38746C10.812 11.8974 11.2707 10.3248 11.3362 9.64102V9.57265C11.4017 9.29915 11.4017 9.09402 11.4017 8.82051V2.32478C11.4017 1.02564 12.3846 0 13.6296 0H20.7721C22.0171 0 23 1.02564 23 2.32478Z" fill="white"/>
<path d="M12 27.2373V34.7627C12 35.983 10.9831 37 9.76271 37H2.23729C1.01695 37 0 35.983 0 34.7627V27.2373C0 26.017 1.01695 25 2.23729 25H9.76271C10.9831 25 12 26.017 12 27.2373Z" fill="#AFCDFB"/>
<path d="M12 40.2373V47.7627C12 48.983 10.9831 50 9.76271 50H2.23729C1.01695 50 0 48.983 0 47.7627V40.2373C0 39.017 1.01695 38 2.23729 38H9.76271C10.9831 38 12 39.017 12 40.2373Z" fill="#6795F7"/>
<path d="M30.9279 24.0747V27.0301C30.9279 27.6346 30.4618 28.1048 29.8624 28.1048H27.0655C26.4662 28.1048 26 27.6346 26 27.0301V24.0747C26 23.4702 26.4662 23 27.0655 23H29.8624C30.3952 23 30.9279 23.4702 30.9279 24.0747Z" fill="white"/>
<path d="M30.9279 30.7163H26V49.8592H30.9279V30.7163Z" fill="white"/>
<path d="M35.3838 23H53.6304V28.1048H40.5781V34.0156H52.6315V38.8517H40.5781V49.8673H35.3838V23Z" fill="white"/>
<path d="M76.2793 35.2229C75.8131 34.0139 75.1472 32.9392 74.2815 31.9989C73.4157 31.1257 72.3503 30.3868 71.1516 29.8495C69.9529 29.3121 68.4878 29.0435 66.9562 29.0435C65.4245 29.0435 63.9595 29.3121 62.6942 29.8495C61.4289 30.3868 60.2968 31.1257 59.3645 32.066C58.4322 33.0064 57.6997 34.1482 57.2335 35.4244C56.7008 36.7006 56.501 38.044 56.501 39.5217C56.501 40.9994 56.7674 42.4099 57.2335 43.6861C57.6997 44.9623 58.4322 46.037 59.2979 46.9773C60.2302 47.9177 61.2957 48.6565 62.6276 49.1939C63.8929 49.7312 65.3579 49.9999 66.9562 49.9999C69.2204 49.9999 71.085 49.5969 72.6166 48.7237C74.0151 47.9849 75.1472 46.9102 76.0795 45.634L76.2127 45.4325L72.55 43.1488L72.4169 43.2831C71.8175 43.9548 71.1516 44.5593 70.3524 45.0295C69.4201 45.5668 68.288 45.8355 67.0228 45.8355C65.5577 45.8355 64.2924 45.4325 63.2935 44.6265C62.2946 43.8204 61.6287 42.6786 61.3623 41.3352L61.2957 40.9994H76.9452V40.7307C76.9452 40.6635 76.9452 40.5964 76.9452 40.5964C77.0118 40.059 77.0118 39.656 77.0118 39.3874C77.0118 37.8425 76.7454 36.4991 76.2793 35.2229ZM61.4289 37.3723L61.5621 36.9693C61.9617 35.7603 62.6276 34.7527 63.4933 34.0811C64.4256 33.4094 65.5577 33.0064 66.8896 33.0064C68.0217 33.0064 69.1538 33.3422 70.0861 34.0139C71.085 34.6856 71.6843 35.6931 72.0173 36.9693L72.0839 37.3723H61.4289Z" fill="white"/>
<path d="M85.5997 23H80.6052V49.8673H85.5997V23Z" fill="white"/>
<path d="M94.3198 23H89.3253V49.8673H94.3198V23Z" fill="white"/>
<path d="M118.425 35.4268C117.892 34.1506 117.16 33.076 116.161 32.1356C115.162 31.1952 114.03 30.4564 112.765 29.9191C111.499 29.3817 110.034 29.113 108.503 29.113C106.971 29.113 105.573 29.3817 104.241 29.9191C102.975 30.4564 101.843 31.1952 100.844 32.1356C99.9122 33.076 99.1796 34.1506 98.6469 35.4268C98.1142 36.703 97.8478 38.0464 97.8478 39.5241C97.8478 41.0018 98.1142 42.3452 98.6469 43.6213C99.1796 44.8975 99.9122 45.9722 100.844 46.9126C101.843 47.8529 102.975 48.5918 104.241 49.1291C105.506 49.6665 106.971 49.9352 108.503 49.9352C110.034 49.9352 111.433 49.6665 112.765 49.1291C114.03 48.5918 115.229 47.8529 116.161 46.9126C117.093 45.9722 117.892 44.8304 118.425 43.6213C118.958 42.3452 119.224 41.0018 119.224 39.5241C119.224 38.1136 118.958 36.703 118.425 35.4268ZM113.897 41.9421C113.63 42.681 113.164 43.2855 112.632 43.8229C112.099 44.3602 111.499 44.7632 110.767 45.0991C109.302 45.7036 107.57 45.7036 106.172 45.0991C105.439 44.7632 104.84 44.3602 104.374 43.8229C103.908 43.2855 103.508 42.681 103.175 41.9421C102.909 41.2033 102.776 40.3973 102.776 39.5241C102.776 38.6509 102.909 37.8449 103.175 37.106C103.442 36.3672 103.908 35.7627 104.374 35.2253C104.907 34.688 105.506 34.285 106.239 33.9491C106.971 33.6805 107.77 33.479 108.503 33.479C109.302 33.479 110.101 33.6133 110.767 33.9491C111.433 34.2178 112.099 34.688 112.632 35.2253C113.164 35.7627 113.564 36.3672 113.83 37.106C114.097 37.8449 114.296 38.6509 114.296 39.5241C114.363 40.3973 114.163 41.2033 113.897 41.9421Z" fill="white"/>
<path d="M150 29.9839L144.872 49.9328H138.279L135.282 37.238L133.484 44.6265L132.219 49.9328H125.693L120.632 29.9839H125.626V30.1182L129.156 45.0967L132.885 29.9839H137.946L141.609 45.1639L145.205 29.9839H150Z" fill="white"/>
</svg>
